<mxfile host="app.diagrams.net" modified="2023-05-04T05:22:25.835Z" agent="Mozilla/5.0 (Windows NT 10.0; Win64; x64) AppleWebKit/537.36 (KHTML, like Gecko) Chrome/112.0.0.0 Safari/537.36" version="21.2.7" etag="BwGjP9-ntaZ7o90o0PUh" type="github">
  <diagram name="第 1 页" id="rgEneY2xEyIsXd1x0UrX">
    <mxGraphModel>
      <root>
        <mxCell id="0" />
        <mxCell id="1" parent="0" />
      </root>
    </mxGraphModel>
  </diagram>
</mxfile>
